<svg xmlns="http://www.w3.org/2000/svg" width="224" height="164" viewBox="0 0 224 164" fill="none">
<rect x="44" y="84" width="8" height="8" fill="#ffffff"/>
<rect x="52" y="76" width="8" height="8" fill="#ffffff"/>
<rect x="60" y="68" width="8" height="8" fill="#ffffff"/>
<rect x="60" y="60" width="8" height="8" fill="#ffffff"/>
<rect x="60" y="52" width="8" height="8" fill="#ffffff"/>
<rect x="68" y="44" width="8" height="8" fill="#ffffff"/>
<rect x="76" y="44" width="8" height="8" fill="#ffffff"/>
<rect x="84" y="44" width="8" height="8" fill="#ffffff"/>
<rect x="92" y="44" width="8" height="8" fill="#ffffff"/>
<rect x="92" y="52" width="8" height="8" fill="#ffffff"/>
<rect x="100" y="60" width="8" height="8" fill="#ffffff"/>
<rect x="108" y="60" width="8" height="8" fill="#ffffff"/>
<rect x="116" y="60" width="8" height="8" fill="#ffffff"/>
<rect x="124" y="44" width="8" height="8" fill="#ffffff"/>
<rect x="124" y="52" width="8" height="8" fill="#ffffff"/>
<rect x="132" y="44" width="8" height="8" fill="#ffffff"/>
<rect x="140" y="44" width="8" height="8" fill="#ffffff"/>
<rect x="148" y="44" width="8" height="8" fill="#ffffff"/>
<rect x="156" y="52" width="8" height="8" fill="#ffffff"/>
<rect x="156" y="60" width="8" height="8" fill="#ffffff"/>
<rect x="156" y="68" width="8" height="8" fill="#ffffff"/>
<rect x="164" y="76" width="8" height="8" fill="#ffffff"/>
<rect x="172" y="84" width="8" height="8" fill="#ffffff"/>
<rect x="172" y="92" width="8" height="8" fill="#ffffff"/>
<rect x="172" y="100" width="8" height="8" fill="#ffffff"/>
<rect x="172" y="108" width="8" height="8" fill="#ffffff"/>
<rect x="172" y="116" width="8" height="8" fill="#ffffff"/>
<rect x="140" y="60" width="8" height="8" fill="#ffffff"/>
<rect x="140" y="68" width="8" height="8" fill="#ffffff"/>
<rect x="125" y="84" width="8" height="8" fill="#ffffff"/>
<rect x="117" y="84" width="8" height="8" fill="#ffffff"/>
<rect x="109" y="84" width="8" height="8" fill="#ffffff"/>
<rect x="101" y="84" width="8" height="8" fill="#ffffff"/>
<rect x="93" y="84" width="8" height="8" fill="#ffffff"/>
<rect x="76" y="68" width="8" height="8" fill="#ffffff"/>
<rect x="76" y="60" width="8" height="8" fill="#ffffff"/>
<rect x="44" y="92" width="8" height="8" fill="#ffffff"/>
<rect x="44" y="100" width="8" height="8" fill="#ffffff"/>
<rect x="44" y="108" width="8" height="8" fill="#ffffff"/>
<rect x="44" y="116" width="8" height="8" fill="#ffffff"/>
<rect x="44" y="124" width="8" height="8" fill="#ffffff"/>
<rect x="52" y="132" width="8" height="8" fill="#ffffff"/>
<rect x="60" y="140" width="8" height="8" fill="#ffffff"/>
<rect x="68" y="148" width="8" height="8" fill="#ffffff"/>
<rect x="76" y="156" width="8" height="8" fill="#ffffff"/>
<rect x="84" y="156" width="8" height="8" fill="#ffffff"/>
<rect x="92" y="148" width="8" height="8" fill="#ffffff"/>
<rect x="100" y="148" width="8" height="8" fill="#ffffff"/>
<rect x="108" y="148" width="8" height="8" fill="#ffffff"/>
<rect x="116" y="148" width="8" height="8" fill="#ffffff"/>
<rect x="124" y="148" width="8" height="8" fill="#ffffff"/>
<rect x="132" y="156" width="8" height="8" fill="#ffffff"/>
<rect x="140" y="156" width="8" height="8" fill="#ffffff"/>
<rect x="148" y="148" width="8" height="8" fill="#ffffff"/>
<rect x="156" y="140" width="8" height="8" fill="#ffffff"/>
<rect x="164" y="132" width="8" height="8" fill="#ffffff"/>
<rect x="172" y="124" width="8" height="8" fill="#ffffff"/>
<rect x="148" y="140" width="8" height="8" fill="#ffffff"/>
<rect x="68" y="140" width="8" height="8" fill="#ffffff"/>
</svg>