<svg width="224" height="164" viewBox="0 0 224 164" fill="none" xmlns="http://www.w3.org/2000/svg">
<g clip-path="url(#clip0_37_980)">
<rect x="44" y="84" width="8" height="8" fill="black"/>
<rect x="52" y="76" width="8" height="8" fill="black"/>
<rect x="60" y="68" width="8" height="8" fill="black"/>
<rect x="60" y="60" width="8" height="8" fill="black"/>
<rect x="60" y="52" width="8" height="8" fill="black"/>
<rect x="68" y="44" width="8" height="8" fill="black"/>
<rect x="76" y="44" width="8" height="8" fill="black"/>
<rect x="84" y="44" width="8" height="8" fill="black"/>
<rect x="92" y="44" width="8" height="8" fill="black"/>
<rect x="92" y="52" width="8" height="8" fill="black"/>
<rect x="100" y="60" width="8" height="8" fill="black"/>
<rect x="108" y="60" width="8" height="8" fill="black"/>
<rect x="116" y="60" width="8" height="8" fill="black"/>
<rect x="124" y="44" width="8" height="8" fill="black"/>
<rect x="124" y="52" width="8" height="8" fill="black"/>
<rect x="132" y="44" width="8" height="8" fill="black"/>
<rect x="140" y="44" width="8" height="8" fill="black"/>
<rect x="148" y="44" width="8" height="8" fill="black"/>
<rect x="156" y="52" width="8" height="8" fill="black"/>
<rect x="156" y="60" width="8" height="8" fill="black"/>
<rect x="156" y="68" width="8" height="8" fill="black"/>
<rect x="164" y="76" width="8" height="8" fill="black"/>
<rect x="172" y="84" width="8" height="8" fill="black"/>
<rect x="172" y="92" width="8" height="8" fill="black"/>
<rect x="172" y="100" width="8" height="8" fill="black"/>
<rect x="172" y="108" width="8" height="8" fill="black"/>
<rect x="172" y="116" width="8" height="8" fill="black"/>
<rect x="140" y="60" width="8" height="8" fill="black"/>
<rect x="140" y="68" width="8" height="8" fill="black"/>
<rect x="125" y="100" width="8" height="8" fill="black"/>
<rect x="117" y="92" width="8" height="8" fill="black"/>
<rect x="109" y="92" width="8" height="8" fill="black"/>
<rect x="101" y="92" width="8" height="8" fill="black"/>
<rect x="93" y="100" width="8" height="8" fill="black"/>
<rect x="76" y="68" width="8" height="8" fill="black"/>
<rect x="76" y="60" width="8" height="8" fill="black"/>
<rect x="44" y="92" width="8" height="8" fill="black"/>
<rect x="44" y="100" width="8" height="8" fill="black"/>
<rect x="44" y="108" width="8" height="8" fill="black"/>
<rect x="44" y="116" width="8" height="8" fill="black"/>
<rect x="44" y="124" width="8" height="8" fill="black"/>
<rect x="52" y="132" width="8" height="8" fill="black"/>
<rect x="60" y="140" width="8" height="8" fill="black"/>
<rect x="68" y="148" width="8" height="8" fill="black"/>
<rect x="76" y="156" width="8" height="8" fill="black"/>
<rect x="84" y="156" width="8" height="8" fill="black"/>
<rect x="92" y="148" width="8" height="8" fill="black"/>
<rect x="100" y="148" width="8" height="8" fill="black"/>
<rect x="108" y="148" width="8" height="8" fill="black"/>
<rect x="116" y="148" width="8" height="8" fill="black"/>
<rect x="124" y="148" width="8" height="8" fill="black"/>
<rect x="132" y="156" width="8" height="8" fill="black"/>
<rect x="140" y="156" width="8" height="8" fill="black"/>
<rect x="148" y="148" width="8" height="8" fill="black"/>
<rect x="156" y="140" width="8" height="8" fill="black"/>
<rect x="164" y="132" width="8" height="8" fill="black"/>
<rect x="172" y="124" width="8" height="8" fill="black"/>
<rect x="148" y="140" width="8" height="8" fill="black"/>
<rect x="68" y="140" width="8" height="8" fill="black"/>
<path d="M188 36H192V40H188V36Z" fill="black"/>
<path d="M184 32H188V36H184V32Z" fill="black"/>
<path d="M180 28H184V32H180V28Z" fill="black"/>
<path d="M176 24H180V28H176V24Z" fill="black"/>
<path d="M172 20H176V24H172V20Z" fill="black"/>
<path d="M168 16H172V20H168V16Z" fill="black"/>
<path d="M168 12H172V16H168V12Z" fill="black"/>
<path d="M168 8H172V12H168V8Z" fill="black"/>
<path d="M172 4H176V8H172V4Z" fill="black"/>
<path d="M180 0H184V4H180V0Z" fill="black"/>
<path d="M176 0H180V4H176V0Z" fill="black"/>
<path d="M184 4H188V8H184V4Z" fill="black"/>
<path d="M188 8H192V12H188V8Z" fill="black"/>
<path d="M192 4H196V8H192V4Z" fill="black"/>
<path d="M196 0H200V4H196V0Z" fill="black"/>
<path d="M200 0H204V4H200V0Z" fill="black"/>
<path d="M204 4H208V8H204V4Z" fill="black"/>
<path d="M208 8H212V12H208V8Z" fill="black"/>
<path d="M208 12H212V16H208V12Z" fill="black"/>
<path d="M208 16H212V20H208V16Z" fill="black"/>
<path d="M204 20H208V24H204V20Z" fill="black"/>
<path d="M196 28H200V32H196V28Z" fill="black"/>
<path d="M200 24H204V28H200V24Z" fill="black"/>
<path d="M192 8V12V16H196V20H192V24H188V28H192V32H196V28H200V24H204V20H208V16V12V8H204V4H200H196V8H192Z" fill="black"/>
<path d="M180 28H184V24H188V20H192V16H188V12H184V8V4H180H176V8H172V12V16V20H176V24H180V28Z" fill="black"/>
<path d="M184 32H188V28H184V32Z" fill="black"/>
<path d="M188 36H192V32H188V36Z" fill="black"/>
</g>
<defs>
<clipPath id="clip0_37_980">
<rect width="224" height="164" fill="white"/>
</clipPath>
</defs>
</svg>
